<?xml version="1.0" encoding="UTF-8"?>
<svg id="Calque_1" data-name="Calque 1" xmlns="http://www.w3.org/2000/svg" viewBox="0 0 999.14 138.97">
  <defs>
    <style>
      .cls-1 {
        font-family: Poppins-Medium, Poppins;
        font-weight: 500;
      }

      .cls-2 {
        font-family: Poppins-Regular, Poppins;
      }

      .cls-3 {
        font-family: Poppins-Bold, Poppins;
        font-weight: 700;
      }

      .cls-4 {
        fill: #de6336;
      }

      .cls-4, .cls-5 {
        stroke-width: 0px;
      }

      .cls-5, .cls-6 {
        fill: #fff;
      }

      .cls-6 {
        font-size: 39px;
      }
    </style>
  </defs>
  <polygon class="cls-4" points="983.8 130.73 7.18 130.73 7.18 9.71 872.3 9.71 983.8 130.73"/>
  <g>
    <path class="cls-5" d="m84.58,60.52l-6.24-10.84h-3.39v10.84h-4.45v-27.11h9.36c2.08,0,3.84.37,5.28,1.09,1.44.73,2.52,1.7,3.24,2.92.71,1.22,1.07,2.59,1.07,4.09,0,1.77-.51,3.37-1.54,4.82-1.03,1.44-2.61,2.42-4.74,2.94l6.71,11.23h-5.3Zm-9.63-14.39h4.91c1.66,0,2.92-.42,3.76-1.25.84-.83,1.27-1.95,1.27-3.35s-.42-2.5-1.25-3.29c-.83-.79-2.09-1.19-3.78-1.19h-4.91v9.09Z"/>
    <path class="cls-5" d="m114.69,51.43h-16.42c.13,1.72.77,3.09,1.91,4.13,1.14,1.04,2.55,1.56,4.21,1.56,2.39,0,4.08-1,5.07-3h4.8c-.65,1.98-1.83,3.59-3.53,4.86-1.7,1.26-3.82,1.89-6.34,1.89-2.05,0-3.89-.46-5.52-1.38-1.62-.92-2.9-2.22-3.82-3.9-.92-1.68-1.38-3.62-1.38-5.83s.45-4.15,1.35-5.83,2.16-2.97,3.78-3.88,3.49-1.37,5.6-1.37,3.83.44,5.42,1.33,2.82,2.12,3.71,3.72c.88,1.6,1.33,3.44,1.33,5.52,0,.81-.05,1.54-.16,2.18Zm-4.48-3.59c-.03-1.64-.61-2.95-1.75-3.94-1.14-.99-2.56-1.48-4.25-1.48-1.53,0-2.85.49-3.94,1.46-1.09.98-1.74,2.29-1.95,3.96h11.9Zm-1.91-14.59l-8.62,4.25v-3.28l8.62-4.76v3.78Z"/>
    <path class="cls-5" d="m119.08,43.95c.9-1.66,2.12-2.96,3.67-3.88,1.55-.92,3.26-1.38,5.13-1.38,1.69,0,3.17.33,4.43.99s2.27,1.49,3.02,2.48v-3.12h4.48v21.49h-4.48v-3.2c-.75,1.01-1.78,1.86-3.08,2.54-1.3.68-2.78,1.01-4.45,1.01-1.85,0-3.54-.47-5.07-1.42-1.53-.95-2.75-2.28-3.65-3.98-.9-1.7-1.35-3.63-1.35-5.79s.45-4.07,1.35-5.73Zm15.33,1.95c-.61-1.09-1.41-1.92-2.4-2.5-.99-.57-2.05-.86-3.2-.86s-2.21.28-3.2.84c-.99.56-1.79,1.38-2.4,2.46-.61,1.08-.92,2.36-.92,3.84s.31,2.78.92,3.9c.61,1.12,1.42,1.97,2.42,2.55s2.06.88,3.18.88,2.21-.29,3.2-.86c.99-.57,1.79-1.41,2.4-2.52.61-1.1.92-2.4.92-3.88s-.31-2.77-.92-3.86Z"/>
    <path class="cls-5" d="m158.74,39.68c1.29.66,2.29,1.49,3.02,2.48v-3.12h4.48v21.84c0,1.98-.42,3.74-1.25,5.29-.83,1.55-2.03,2.76-3.61,3.65-1.57.88-3.45,1.33-5.64,1.33-2.91,0-5.33-.68-7.25-2.05-1.92-1.37-3.02-3.22-3.28-5.56h4.41c.34,1.12,1.06,2.02,2.16,2.71,1.1.69,2.42,1.03,3.96,1.03,1.79,0,3.24-.55,4.35-1.64,1.1-1.09,1.66-2.68,1.66-4.76v-3.59c-.75,1.01-1.77,1.87-3.06,2.55-1.29.69-2.75,1.03-4.39,1.03-1.87,0-3.58-.47-5.13-1.42-1.55-.95-2.77-2.28-3.67-3.98-.9-1.7-1.35-3.63-1.35-5.79s.45-4.07,1.35-5.73c.9-1.66,2.12-2.96,3.67-3.88,1.55-.92,3.26-1.38,5.13-1.38,1.66,0,3.14.33,4.43.99Zm2.11,6.22c-.61-1.09-1.41-1.92-2.4-2.5-.99-.57-2.05-.86-3.2-.86s-2.21.28-3.2.84c-.99.56-1.79,1.38-2.4,2.46-.61,1.08-.92,2.36-.92,3.84s.31,2.78.92,3.9c.61,1.12,1.42,1.97,2.42,2.55s2.06.88,3.18.88,2.21-.29,3.2-.86c.99-.57,1.79-1.41,2.4-2.52.61-1.1.92-2.4.92-3.88s-.31-2.77-.92-3.86Z"/>
    <path class="cls-5" d="m172.33,35.37c-.55-.55-.82-1.22-.82-2.03s.27-1.48.82-2.03c.55-.55,1.22-.82,2.03-.82s1.44.27,1.99.82c.55.55.82,1.22.82,2.03s-.27,1.48-.82,2.03c-.55.55-1.21.82-1.99.82s-1.48-.27-2.03-.82Zm4.21,3.67v21.49h-4.45v-21.49h4.45Z"/>
    <path class="cls-5" d="m185.65,59.96c-1.34-.61-2.4-1.44-3.18-2.5-.78-1.05-1.2-2.23-1.25-3.53h4.6c.08.91.51,1.67,1.31,2.28.79.61,1.79.92,2.98.92s2.22-.24,2.91-.72c.69-.48,1.03-1.1,1.03-1.85,0-.81-.38-1.4-1.15-1.79-.77-.39-1.98-.82-3.65-1.29-1.61-.44-2.93-.87-3.94-1.29-1.01-.42-1.89-1.05-2.63-1.91-.74-.86-1.11-1.99-1.11-3.39,0-1.14.34-2.19,1.01-3.14.68-.95,1.64-1.7,2.91-2.24,1.26-.55,2.71-.82,4.35-.82,2.44,0,4.41.62,5.91,1.85,1.49,1.24,2.29,2.92,2.4,5.05h-4.45c-.08-.96-.47-1.73-1.17-2.3-.7-.57-1.65-.86-2.85-.86s-2.07.22-2.69.66-.94,1.03-.94,1.75c0,.57.21,1.05.62,1.44.42.39.92.7,1.52.92s1.48.5,2.65.84c1.56.42,2.84.84,3.84,1.27,1,.43,1.87,1.06,2.59,1.89.73.83,1.1,1.94,1.13,3.32,0,1.22-.34,2.31-1.01,3.28-.68.96-1.63,1.72-2.87,2.26-1.24.55-2.69.82-4.35.82s-3.2-.31-4.54-.92Z"/>
    <path class="cls-5" d="m206.48,59.96c-1.34-.61-2.4-1.44-3.18-2.5-.78-1.05-1.2-2.23-1.25-3.53h4.6c.08.91.51,1.67,1.31,2.28.79.61,1.79.92,2.98.92s2.22-.24,2.91-.72c.69-.48,1.03-1.1,1.03-1.85,0-.81-.38-1.4-1.15-1.79-.77-.39-1.98-.82-3.65-1.29-1.61-.44-2.93-.87-3.94-1.29-1.01-.42-1.89-1.05-2.63-1.91-.74-.86-1.11-1.99-1.11-3.39,0-1.14.34-2.19,1.01-3.14.68-.95,1.64-1.7,2.91-2.24,1.26-.55,2.71-.82,4.35-.82,2.44,0,4.41.62,5.91,1.85,1.49,1.24,2.29,2.92,2.4,5.05h-4.45c-.08-.96-.47-1.73-1.17-2.3-.7-.57-1.65-.86-2.85-.86s-2.07.22-2.69.66-.94,1.03-.94,1.75c0,.57.21,1.05.62,1.44.42.39.92.7,1.52.92s1.48.5,2.65.84c1.56.42,2.84.84,3.84,1.27,1,.43,1.87,1.06,2.59,1.89.73.83,1.1,1.94,1.13,3.32,0,1.22-.34,2.31-1.01,3.28-.68.96-1.63,1.72-2.87,2.26-1.24.55-2.69.82-4.35.82s-3.2-.31-4.54-.92Z"/>
    <path class="cls-5" d="m243.59,51.43h-16.42c.13,1.72.77,3.09,1.91,4.13,1.14,1.04,2.55,1.56,4.21,1.56,2.39,0,4.08-1,5.07-3h4.8c-.65,1.98-1.83,3.59-3.53,4.86-1.7,1.26-3.82,1.89-6.34,1.89-2.05,0-3.89-.46-5.52-1.38-1.62-.92-2.9-2.22-3.82-3.9-.92-1.68-1.38-3.62-1.38-5.83s.45-4.15,1.35-5.83,2.16-2.97,3.78-3.88,3.49-1.37,5.6-1.37,3.83.44,5.42,1.33,2.82,2.12,3.71,3.72c.88,1.6,1.33,3.44,1.33,5.52,0,.81-.05,1.54-.16,2.18Zm-4.48-3.59c-.03-1.64-.61-2.95-1.75-3.94-1.14-.99-2.56-1.48-4.25-1.48-1.53,0-2.85.49-3.94,1.46-1.09.98-1.74,2.29-1.95,3.96h11.9Z"/>
    <path class="cls-5" d="m252.05,56.89h9.75v3.63h-14.9v-3.63l9.79-14.24h-9.79v-3.63h14.9v3.63l-9.75,14.24Z"/>
    <path class="cls-5" d="m296.16,51.43h-16.42c.13,1.72.77,3.09,1.91,4.13,1.14,1.04,2.55,1.56,4.21,1.56,2.39,0,4.08-1,5.07-3h4.8c-.65,1.98-1.83,3.59-3.53,4.86-1.7,1.26-3.82,1.89-6.34,1.89-2.05,0-3.89-.46-5.52-1.38-1.62-.92-2.9-2.22-3.82-3.9-.92-1.68-1.38-3.62-1.38-5.83s.45-4.15,1.35-5.83,2.16-2.97,3.78-3.88,3.49-1.37,5.6-1.37,3.83.44,5.42,1.33,2.82,2.12,3.71,3.72c.88,1.6,1.33,3.44,1.33,5.52,0,.81-.05,1.54-.16,2.18Zm-4.48-3.59c-.03-1.64-.61-2.95-1.75-3.94-1.14-.99-2.56-1.48-4.25-1.48-1.53,0-2.85.49-3.94,1.46-1.09.98-1.74,2.29-1.95,3.96h11.9Z"/>
    <path class="cls-5" d="m316.07,39.73c1.34.7,2.39,1.74,3.14,3.12.75,1.38,1.13,3.04,1.13,4.99v12.67h-4.41v-12.01c0-1.92-.48-3.4-1.44-4.43-.96-1.03-2.28-1.54-3.94-1.54s-2.98.51-3.96,1.54c-.98,1.03-1.46,2.5-1.46,4.43v12.01h-4.45v-21.49h4.45v2.46c.73-.88,1.66-1.57,2.79-2.07,1.13-.49,2.33-.74,3.61-.74,1.69,0,3.2.35,4.54,1.05Z"/>
    <path class="cls-5" d="m335.99,43.95c.9-1.66,2.12-2.96,3.67-3.88,1.55-.92,3.27-1.38,5.17-1.38,1.4,0,2.79.31,4.15.92,1.37.61,2.45,1.42,3.26,2.44v-10.37h4.48v28.86h-4.48v-3.24c-.73,1.04-1.74,1.9-3.02,2.57-1.29.68-2.76,1.01-4.43,1.01-1.87,0-3.58-.47-5.13-1.42-1.55-.95-2.77-2.28-3.67-3.98-.9-1.7-1.35-3.63-1.35-5.79s.45-4.07,1.35-5.73Zm15.33,1.95c-.61-1.09-1.41-1.92-2.4-2.5-.99-.57-2.05-.86-3.2-.86s-2.21.28-3.2.84c-.99.56-1.79,1.38-2.4,2.46-.61,1.08-.92,2.36-.92,3.84s.31,2.78.92,3.9c.61,1.12,1.42,1.97,2.42,2.55s2.06.88,3.18.88,2.21-.29,3.2-.86c.99-.57,1.79-1.41,2.4-2.52.61-1.1.92-2.4.92-3.88s-.31-2.77-.92-3.86Z"/>
    <path class="cls-5" d="m362.81,35.37c-.55-.55-.82-1.22-.82-2.03s.27-1.48.82-2.03c.55-.55,1.22-.82,2.03-.82s1.44.27,1.99.82c.55.55.82,1.22.82,2.03s-.27,1.48-.82,2.03c-.55.55-1.21.82-1.99.82s-1.48-.27-2.03-.82Zm4.21,3.67v21.49h-4.45v-21.49h4.45Z"/>
    <path class="cls-5" d="m379.91,39.6c1.08-.61,2.36-.92,3.84-.92v4.6h-1.13c-1.74,0-3.06.44-3.96,1.33-.9.88-1.35,2.42-1.35,4.6v11.31h-4.45v-21.49h4.45v3.12c.65-1.09,1.51-1.94,2.59-2.55Z"/>
    <path class="cls-5" d="m407.38,51.43h-16.42c.13,1.72.77,3.09,1.91,4.13,1.14,1.04,2.55,1.56,4.21,1.56,2.39,0,4.08-1,5.07-3h4.8c-.65,1.98-1.83,3.59-3.53,4.86-1.7,1.26-3.82,1.89-6.34,1.89-2.05,0-3.89-.46-5.52-1.38-1.62-.92-2.9-2.22-3.82-3.9-.92-1.68-1.38-3.62-1.38-5.83s.45-4.15,1.35-5.83,2.16-2.97,3.78-3.88,3.49-1.37,5.6-1.37,3.83.44,5.42,1.33,2.82,2.12,3.71,3.72c.88,1.6,1.33,3.44,1.33,5.52,0,.81-.05,1.54-.16,2.18Zm-4.48-3.59c-.03-1.64-.61-2.95-1.75-3.94-1.14-.99-2.56-1.48-4.25-1.48-1.53,0-2.85.49-3.94,1.46-1.09.98-1.74,2.29-1.95,3.96h11.9Z"/>
    <path class="cls-5" d="m411.77,43.93c.9-1.68,2.14-2.97,3.72-3.88,1.59-.91,3.41-1.37,5.46-1.37,2.6,0,4.75.62,6.45,1.85,1.7,1.24,2.85,3,3.45,5.28h-4.8c-.39-1.07-1.01-1.9-1.87-2.5-.86-.6-1.94-.9-3.24-.9-1.82,0-3.27.64-4.35,1.93-1.08,1.29-1.62,3.09-1.62,5.4s.54,4.12,1.62,5.42c1.08,1.3,2.53,1.95,4.35,1.95,2.57,0,4.28-1.13,5.11-3.39h4.8c-.62,2.18-1.79,3.92-3.51,5.21-1.72,1.29-3.85,1.93-6.4,1.93-2.05,0-3.87-.46-5.46-1.38-1.59-.92-2.83-2.22-3.72-3.9s-1.35-3.62-1.35-5.83.45-4.15,1.35-5.83Z"/>
    <path class="cls-5" d="m440.49,42.66v11.9c0,.81.19,1.38.57,1.74.38.35,1.02.53,1.93.53h2.73v3.71h-3.51c-2,0-3.54-.47-4.6-1.4-1.07-.94-1.6-2.46-1.6-4.56v-11.9h-2.54v-3.63h2.54v-5.34h4.48v5.34h5.23v3.63h-5.23Z"/>
    <path class="cls-5" d="m484.91,43.44l-1.09,5.11h4.68v6.01h-5.97l-1.29,5.97h-6.24l1.29-5.97h-6.47l-1.29,5.97h-6.24l1.29-5.97h-5.77v-6.01h7.06l1.09-5.11h-5.66v-6.01h6.9l1.25-5.77h6.24l-1.25,5.77h6.47l1.25-5.77h6.24l-1.25,5.77h4.84v6.01h-6.08Zm-6.24,0h-6.47l-1.09,5.11h6.47l1.09-5.11Z"/>
    <path class="cls-5" d="m525.71,33.14v27.38h-6.67v-16.42l-6.12,16.42h-5.38l-6.16-16.46v16.46h-6.67v-27.38h7.88l7.68,18.95,7.6-18.95h7.84Z"/>
    <path class="cls-5" d="m537.17,38.49v5.54h8.93v5.15h-8.93v6.01h10.1v5.34h-16.77v-27.38h16.77v5.34h-10.1Z"/>
    <path class="cls-5" d="m558.27,55.37h8.74v5.15h-15.41v-27.38h6.67v22.23Z"/>
    <path class="cls-5" d="m576.87,38.49v5.54h8.93v5.15h-8.93v6.01h10.1v5.34h-16.77v-27.38h16.77v5.34h-10.1Z"/>
    <path class="cls-5" d="m597.97,38.49v5.54h8.93v5.15h-8.93v6.01h10.1v5.34h-16.77v-27.38h16.77v5.34h-10.1Z"/>
    <path class="cls-5" d="m636.89,60.52h-6.67l-11.15-16.89v16.89h-6.67v-27.38h6.67l11.15,16.96v-16.96h6.67v27.38Z"/>
    <path class="cls-5" d="m648.28,33.14v16.38c0,1.64.4,2.9,1.21,3.78.81.88,1.99,1.33,3.55,1.33s2.76-.44,3.59-1.33c.83-.88,1.25-2.15,1.25-3.78v-16.38h6.67v16.34c0,2.44-.52,4.51-1.56,6.2-1.04,1.69-2.44,2.96-4.19,3.82-1.75.86-3.71,1.29-5.87,1.29s-4.09-.42-5.79-1.27c-1.7-.84-3.05-2.12-4.04-3.82-.99-1.7-1.48-3.78-1.48-6.22v-16.34h6.67Z"/>
    <path class="cls-5" d="m700.23,33.14v27.38h-6.67v-16.42l-6.12,16.42h-5.38l-6.16-16.46v16.46h-6.67v-27.38h7.88l7.68,18.95,7.6-18.95h7.84Z"/>
    <path class="cls-5" d="m87.31,83.34v2.89h-7.41v24.3h-3.55v-24.3h-7.45v-2.89h18.41Z"/>
    <path class="cls-5" d="m120.15,89.15l-6.67,21.37h-3.67l-5.15-16.96-5.15,16.96h-3.67l-6.71-21.37h3.63l4.91,17.94,5.3-17.94h3.63l5.19,17.98,4.84-17.98h3.51Z"/>
    <path class="cls-5" d="m123.78,84.98c-.47-.47-.7-1.04-.7-1.72s.23-1.25.7-1.72c.47-.47,1.04-.7,1.72-.7s1.2.23,1.66.7c.45.47.68,1.04.68,1.72s-.23,1.25-.68,1.72c-.46.47-1.01.7-1.66.7s-1.25-.23-1.72-.7Zm3.43,4.17v21.37h-3.55v-21.37h3.55Z"/>
    <path class="cls-5" d="m137.58,92.07v12.6c0,1.04.22,1.77.66,2.2.44.43,1.21.64,2.3.64h2.61v3h-3.2c-1.98,0-3.46-.46-4.45-1.37-.99-.91-1.48-2.4-1.48-4.48v-12.6h-2.77v-2.92h2.77v-5.38h3.55v5.38h5.58v2.92h-5.58Z"/>
    <path class="cls-5" d="m151.78,92.07v12.6c0,1.04.22,1.77.66,2.2.44.43,1.21.64,2.3.64h2.61v3h-3.2c-1.98,0-3.46-.46-4.45-1.37-.99-.91-1.48-2.4-1.48-4.48v-12.6h-2.77v-2.92h2.77v-5.38h3.55v5.38h5.58v2.92h-5.58Z"/>
    <path class="cls-5" d="m181.03,101.16h-17.08c.13,2.11.85,3.75,2.16,4.93,1.31,1.18,2.91,1.77,4.78,1.77,1.53,0,2.81-.36,3.84-1.07,1.03-.71,1.75-1.67,2.16-2.87h3.82c-.57,2.05-1.72,3.72-3.43,5.01-1.72,1.29-3.85,1.93-6.4,1.93-2.03,0-3.84-.45-5.44-1.36-1.6-.91-2.85-2.2-3.76-3.88-.91-1.68-1.37-3.62-1.37-5.83s.44-4.15,1.33-5.81c.88-1.66,2.13-2.94,3.72-3.84,1.6-.9,3.44-1.34,5.52-1.34s3.82.44,5.38,1.33c1.56.88,2.76,2.1,3.61,3.65.84,1.55,1.27,3.3,1.27,5.25,0,.68-.04,1.39-.12,2.14Zm-4.45-6.38c-.6-.98-1.41-1.72-2.44-2.22-1.03-.51-2.16-.76-3.41-.76-1.79,0-3.32.57-4.58,1.72-1.26,1.14-1.98,2.73-2.16,4.76h13.49c0-1.35-.3-2.52-.9-3.49Z"/>
    <path class="cls-5" d="m192.05,89.77c1.16-.68,2.57-1.01,4.23-1.01v3.67h-.94c-3.98,0-5.97,2.16-5.97,6.47v11.62h-3.55v-21.37h3.55v3.47c.62-1.22,1.51-2.17,2.67-2.85Z"/>
    <path class="cls-5" d="m237.77,86.2c2.29,1.16,4.05,2.78,5.28,4.88,1.23,2.09,1.85,4.5,1.85,7.23,0,2.21-.38,4.26-1.15,6.16-.77,1.9-1.9,3.41-3.39,4.54-1.5,1.13-3.27,1.7-5.32,1.7-1.38,0-2.52-.27-3.41-.82s-1.5-1.31-1.81-2.3c-.73,1.01-1.66,1.8-2.81,2.36-1.14.56-2.39.84-3.74.84-1.92,0-3.44-.58-4.54-1.74-1.11-1.16-1.66-2.74-1.66-4.74,0-1.9.39-3.69,1.17-5.36.78-1.68,1.86-3.02,3.24-4.04,1.38-1.01,2.92-1.52,4.64-1.52,2.18,0,3.67.78,4.45,2.34l.35-2.07h5.38l-1.72,9.79c-.08.47-.12.88-.12,1.25,0,1.14.51,1.72,1.52,1.72,1.25,0,2.2-.8,2.87-2.4.66-1.6.99-3.44.99-5.52,0-2.99-.94-5.33-2.83-7.02-1.89-1.69-4.53-2.54-7.94-2.54-2.91,0-5.56.7-7.94,2.11s-4.24,3.32-5.6,5.75c-1.35,2.43-2.03,5.1-2.03,8.01,0,3.15.92,5.59,2.75,7.33,1.83,1.74,4.4,2.61,7.7,2.61,2.57,0,4.88-.47,6.9-1.4l1.05,4.25c-2.55,1.12-5.41,1.68-8.58,1.68-2.96,0-5.57-.57-7.82-1.72-2.25-1.14-3.98-2.77-5.21-4.88-1.22-2.11-1.83-4.56-1.83-7.37,0-3.93.92-7.48,2.77-10.67,1.85-3.18,4.39-5.68,7.62-7.49,3.24-1.81,6.86-2.71,10.86-2.71,3.07,0,5.75.58,8.03,1.74Zm-10.28,19.13c.64-.44,1.14-1.03,1.52-1.78.38-.74.57-1.54.57-2.4s-.25-1.6-.74-2.16c-.49-.56-1.17-.84-2.03-.84-1.14,0-2.09.49-2.85,1.48-.75.99-1.13,2.16-1.13,3.51,0,.86.22,1.55.66,2.07.44.52,1.09.78,1.95.78.73,0,1.41-.22,2.05-.66Z"/>
    <path class="cls-5" d="m256.84,105.37h8.74v5.15h-15.41v-27.38h6.67v22.23Z"/>
    <path class="cls-5" d="m285.82,105.68h-10.22l-1.64,4.84h-6.98l9.91-27.38h7.72l9.91,27.38h-7.06l-1.64-4.84Zm-1.72-5.15l-3.39-10.02-3.35,10.02h6.75Z"/>
    <path class="cls-5" d="m322.6,112.12v6.4h-24.18v-6.4h24.18Z"/>
    <path class="cls-5" d="m358.95,83.14v27.38h-6.67v-16.42l-6.12,16.42h-5.38l-6.16-16.46v16.46h-6.67v-27.38h7.88l7.68,18.95,7.6-18.95h7.84Z"/>
    <path class="cls-5" d="m370.41,88.49v5.54h8.93v5.15h-8.93v6.01h10.1v5.34h-16.77v-27.38h16.77v5.34h-10.1Z"/>
    <path class="cls-5" d="m391.51,105.37h8.74v5.15h-15.41v-27.38h6.67v22.23Z"/>
    <path class="cls-5" d="m410.11,88.49v5.54h8.93v5.15h-8.93v6.01h10.1v5.34h-16.77v-27.38h16.77v5.34h-10.1Z"/>
    <path class="cls-5" d="m431.21,88.49v5.54h8.93v5.15h-8.93v6.01h10.1v5.34h-16.77v-27.38h16.77v5.34h-10.1Z"/>
  </g>
  <text class="cls-6" transform="translate(67.58 -145.76)"><tspan class="cls-1" x="0" y="0">Réagissez en direct </tspan><tspan class="cls-3" x="389.45" y="0">#MELEENUM</tspan><tspan class="cls-2" x="0" y="50">Twitter</tspan><tspan class="cls-3" x="129.79" y="50" xml:space="preserve"> @LA_MELEE </tspan></text>
</svg>