<?xml version="1.0" encoding="UTF-8"?>
<svg id="Calque_1" data-name="Calque 1" xmlns="http://www.w3.org/2000/svg" viewBox="0 0 999.14 138.97">
  <defs>
    <style>
      .cls-1 {
        fill: #de6336;
      }

      .cls-1, .cls-2 {
        stroke-width: 0px;
      }

      .cls-2 {
        fill: #fff;
      }
    </style>
  </defs>
  <polygon class="cls-1" points="983.8 130.73 7.18 130.73 7.18 9.71 872.3 9.71 983.8 130.73"/>
  <g>
    <path class="cls-2" d="m83.96,60.52l-5.69-10.33h-1.6v10.33h-6.67v-27.38h11.19c2.16,0,4,.38,5.52,1.13,1.52.75,2.66,1.79,3.41,3.1.75,1.31,1.13,2.78,1.13,4.39,0,1.82-.51,3.45-1.54,4.88-1.03,1.43-2.54,2.44-4.54,3.04l6.32,10.84h-7.53Zm-7.29-15.05h4.13c1.22,0,2.14-.3,2.75-.9.61-.6.92-1.44.92-2.54s-.31-1.86-.92-2.46c-.61-.6-1.53-.9-2.75-.9h-4.13v6.79Z"/>
    <path class="cls-2" d="m115.82,51.24h-15.09c.1,1.35.54,2.39,1.31,3.1.77.72,1.71,1.07,2.83,1.07,1.66,0,2.82-.7,3.47-2.11h7.1c-.36,1.43-1.02,2.72-1.97,3.86-.95,1.14-2.14,2.04-3.57,2.69-1.43.65-3.03.97-4.8.97-2.13,0-4.03-.45-5.69-1.36-1.66-.91-2.96-2.21-3.9-3.9-.94-1.69-1.4-3.67-1.4-5.93s.46-4.24,1.38-5.93c.92-1.69,2.22-2.99,3.88-3.9,1.66-.91,3.57-1.37,5.73-1.37s3.98.44,5.62,1.33,2.92,2.15,3.84,3.78,1.38,3.55,1.38,5.73c0,.62-.04,1.27-.12,1.95Zm-6.71-3.71c0-1.14-.39-2.05-1.17-2.73s-1.75-1.01-2.92-1.01-2.06.33-2.83.98c-.77.65-1.24,1.57-1.42,2.77h8.35Z"/>
    <path class="cls-2" d="m128.81,39.38c1.14-.62,2.48-.94,4.02-.94,1.79,0,3.42.46,4.88,1.37,1.46.91,2.61,2.21,3.45,3.9.84,1.69,1.27,3.65,1.27,5.89s-.42,4.21-1.27,5.91c-.85,1.7-2,3.02-3.45,3.94-1.46.92-3.08,1.38-4.88,1.38-1.51,0-2.84-.31-4-.94-1.16-.62-2.06-1.43-2.71-2.42v13.42h-6.67v-32.14h6.67v3.08c.65-1.01,1.55-1.83,2.69-2.46Zm5.44,6.3c-.92-.95-2.06-1.42-3.41-1.42s-2.45.48-3.37,1.44c-.92.96-1.38,2.28-1.38,3.94s.46,2.98,1.38,3.94c.92.96,2.05,1.44,3.37,1.44s2.46-.49,3.39-1.46c.94-.97,1.4-2.29,1.4-3.96s-.46-2.97-1.38-3.92Z"/>
    <path class="cls-2" d="m152.6,31.66v28.86h-6.67v-28.86h6.67Z"/>
    <path class="cls-2" d="m157.38,43.71c.84-1.69,2-2.99,3.45-3.9,1.46-.91,3.08-1.37,4.88-1.37,1.53,0,2.88.31,4.04.94,1.16.62,2.05,1.44,2.67,2.46v-3.08h6.67v21.76h-6.67v-3.08c-.65,1.01-1.55,1.83-2.71,2.46-1.16.62-2.5.94-4.04.94-1.77,0-3.38-.46-4.84-1.38-1.46-.92-2.61-2.24-3.45-3.94-.85-1.7-1.27-3.67-1.27-5.91s.42-4.2,1.27-5.89Zm13.65,1.99c-.92-.96-2.05-1.44-3.37-1.44s-2.45.47-3.37,1.42c-.92.95-1.38,2.26-1.38,3.92s.46,2.98,1.38,3.96c.92.98,2.05,1.46,3.37,1.46s2.45-.48,3.37-1.44c.92-.96,1.38-2.27,1.38-3.94s-.46-2.98-1.38-3.94Z"/>
    <path class="cls-2" d="m206.15,38.76l-13.65,32.1h-7.18l4.99-11.08-8.85-21.02h7.45l5.03,13.61,4.99-13.61h7.21Z"/>
    <path class="cls-2" d="m212.35,59.86c-1.48-.65-2.65-1.54-3.51-2.67-.86-1.13-1.34-2.4-1.44-3.8h6.59c.08.75.43,1.36,1.05,1.83.62.47,1.39.7,2.3.7.83,0,1.48-.16,1.93-.49.45-.32.68-.75.68-1.27,0-.62-.33-1.08-.98-1.38-.65-.3-1.7-.63-3.16-1-1.56-.36-2.86-.75-3.9-1.15-1.04-.4-1.94-1.04-2.69-1.91-.75-.87-1.13-2.05-1.13-3.53,0-1.25.34-2.38,1.03-3.41.69-1.03,1.7-1.84,3.04-2.44,1.34-.6,2.93-.9,4.78-.9,2.73,0,4.88.68,6.45,2.03,1.57,1.35,2.48,3.15,2.71,5.38h-6.16c-.1-.75-.44-1.35-.99-1.79-.56-.44-1.29-.66-2.2-.66-.78,0-1.38.15-1.79.45-.42.3-.62.71-.62,1.23,0,.62.33,1.09.99,1.4.66.31,1.7.62,3.1.94,1.61.42,2.92.83,3.94,1.23,1.01.4,1.9,1.05,2.67,1.95.77.9,1.16,2.1,1.19,3.61,0,1.27-.36,2.41-1.07,3.41-.72,1-1.74,1.79-3.08,2.36-1.34.57-2.89.86-4.66.86-1.9,0-3.59-.32-5.07-.97Z"/>
    <path class="cls-2" d="m246.63,39.69c1.3-.68,2.77-1.01,4.41-1.01,1.87,0,3.58.46,5.13,1.38s2.76,2.22,3.65,3.88c.88,1.66,1.33,3.58,1.33,5.73s-.44,4.09-1.33,5.79c-.88,1.7-2.1,3.03-3.65,3.98s-3.26,1.42-5.13,1.42c-1.64,0-3.09-.33-4.37-.99-1.27-.66-2.31-1.49-3.12-2.48v13.34h-4.45v-31.71h4.45v3.16c.75-.99,1.78-1.82,3.08-2.5Zm9.07,6.14c-.61-1.08-1.42-1.9-2.42-2.46-1-.56-2.07-.84-3.22-.84s-2.18.29-3.18.86c-1,.57-1.81,1.4-2.42,2.5-.61,1.09-.92,2.38-.92,3.86s.31,2.78.92,3.88c.61,1.11,1.42,1.94,2.42,2.52,1,.57,2.06.86,3.18.86s2.22-.29,3.22-.88c1-.58,1.81-1.44,2.42-2.55.61-1.12.92-2.42.92-3.9s-.31-2.76-.92-3.84Z"/>
    <path class="cls-2" d="m272.58,39.6c1.08-.61,2.36-.92,3.84-.92v4.6h-1.13c-1.74,0-3.06.44-3.96,1.33-.9.88-1.35,2.42-1.35,4.6v11.31h-4.45v-21.49h4.45v3.12c.65-1.09,1.51-1.94,2.59-2.55Z"/>
    <path class="cls-2" d="m284.34,59.49c-1.64-.92-2.93-2.22-3.86-3.9-.94-1.68-1.4-3.62-1.4-5.83s.48-4.12,1.44-5.81c.96-1.69,2.27-2.99,3.94-3.9s3.52-1.37,5.58-1.37,3.91.46,5.58,1.37c1.66.91,2.98,2.21,3.94,3.9.96,1.69,1.44,3.63,1.44,5.81s-.49,4.12-1.48,5.81c-.99,1.69-2.33,3-4.04,3.92-1.7.92-3.58,1.38-5.64,1.38s-3.86-.46-5.5-1.38Zm8.72-3.3c1-.55,1.81-1.37,2.44-2.46s.94-2.42.94-3.98-.3-2.88-.9-3.96c-.6-1.08-1.39-1.89-2.38-2.44-.99-.55-2.05-.82-3.2-.82s-2.2.27-3.18.82-1.75,1.36-2.32,2.44c-.57,1.08-.86,2.4-.86,3.96,0,2.31.59,4.1,1.77,5.36,1.18,1.26,2.67,1.89,4.47,1.89,1.14,0,2.22-.27,3.22-.82Z"/>
    <path class="cls-2" d="m305.26,43.93c.9-1.68,2.14-2.97,3.72-3.88,1.59-.91,3.41-1.37,5.46-1.37,2.6,0,4.75.62,6.45,1.85,1.7,1.24,2.85,3,3.45,5.28h-4.8c-.39-1.07-1.01-1.9-1.87-2.5-.86-.6-1.94-.9-3.24-.9-1.82,0-3.27.64-4.35,1.93-1.08,1.29-1.62,3.09-1.62,5.4s.54,4.12,1.62,5.42c1.08,1.3,2.53,1.95,4.35,1.95,2.57,0,4.28-1.13,5.11-3.39h4.8c-.62,2.18-1.79,3.92-3.51,5.21-1.72,1.29-3.85,1.93-6.4,1.93-2.05,0-3.87-.46-5.46-1.38-1.59-.92-2.83-2.22-3.72-3.9s-1.35-3.62-1.35-5.83.45-4.15,1.35-5.83Z"/>
    <path class="cls-2" d="m344.3,39.73c1.29.7,2.3,1.74,3.04,3.12.74,1.38,1.11,3.04,1.11,4.99v12.67h-4.41v-12.01c0-1.92-.48-3.4-1.44-4.43-.96-1.03-2.28-1.54-3.94-1.54s-2.98.51-3.96,1.54c-.98,1.03-1.46,2.5-1.46,4.43v12.01h-4.45v-28.86h4.45v9.87c.75-.91,1.71-1.61,2.87-2.11,1.16-.49,2.42-.74,3.8-.74,1.64,0,3.1.35,4.39,1.05Z"/>
    <path class="cls-2" d="m353.97,43.95c.9-1.66,2.12-2.96,3.67-3.88,1.55-.92,3.26-1.38,5.13-1.38,1.69,0,3.17.33,4.43.99s2.27,1.49,3.02,2.48v-3.12h4.48v21.49h-4.48v-3.2c-.75,1.01-1.78,1.86-3.08,2.54-1.3.68-2.78,1.01-4.45,1.01-1.85,0-3.54-.47-5.07-1.42-1.53-.95-2.75-2.28-3.65-3.98-.9-1.7-1.35-3.63-1.35-5.79s.45-4.07,1.35-5.73Zm15.33,1.95c-.61-1.09-1.41-1.92-2.4-2.5-.99-.57-2.05-.86-3.2-.86s-2.21.28-3.2.84c-.99.56-1.79,1.38-2.4,2.46-.61,1.08-.92,2.36-.92,3.84s.31,2.78.92,3.9c.61,1.12,1.42,1.97,2.42,2.55s2.06.88,3.18.88,2.21-.29,3.2-.86c.99-.57,1.79-1.41,2.4-2.52.61-1.1.92-2.4.92-3.88s-.31-2.77-.92-3.86Z"/>
    <path class="cls-2" d="m380.79,35.37c-.55-.55-.82-1.22-.82-2.03s.27-1.48.82-2.03c.55-.55,1.22-.82,2.03-.82s1.44.27,1.99.82c.55.55.82,1.22.82,2.03s-.27,1.48-.82,2.03c-.55.55-1.21.82-1.99.82s-1.48-.27-2.03-.82Zm4.21,3.67v21.49h-4.45v-21.49h4.45Z"/>
    <path class="cls-2" d="m406.23,39.73c1.34.7,2.39,1.74,3.14,3.12.75,1.38,1.13,3.04,1.13,4.99v12.67h-4.41v-12.01c0-1.92-.48-3.4-1.44-4.43-.96-1.03-2.28-1.54-3.94-1.54s-2.98.51-3.96,1.54c-.98,1.03-1.46,2.5-1.46,4.43v12.01h-4.45v-21.49h4.45v2.46c.73-.88,1.66-1.57,2.79-2.07,1.13-.49,2.33-.74,3.61-.74,1.69,0,3.2.35,4.54,1.05Z"/>
    <path class="cls-2" d="m435.7,51.43h-16.42c.13,1.72.77,3.09,1.91,4.13,1.14,1.04,2.55,1.56,4.21,1.56,2.39,0,4.08-1,5.07-3h4.8c-.65,1.98-1.83,3.59-3.53,4.86-1.7,1.26-3.82,1.89-6.34,1.89-2.05,0-3.89-.46-5.52-1.38-1.62-.92-2.9-2.22-3.82-3.9-.92-1.68-1.38-3.62-1.38-5.83s.45-4.15,1.35-5.83,2.16-2.97,3.78-3.88,3.49-1.37,5.6-1.37,3.83.44,5.42,1.33,2.82,2.12,3.71,3.72c.88,1.6,1.33,3.44,1.33,5.52,0,.81-.05,1.54-.16,2.18Zm-4.48-3.59c-.03-1.64-.61-2.95-1.75-3.94-1.14-.99-2.56-1.48-4.25-1.48-1.53,0-2.85.49-3.94,1.46-1.09.98-1.74,2.29-1.95,3.96h11.9Z"/>
    <path class="cls-2" d="m470.78,39.73c1.34.7,2.39,1.74,3.16,3.12.77,1.38,1.15,3.04,1.15,4.99v12.67h-4.41v-12.01c0-1.92-.48-3.4-1.44-4.43-.96-1.03-2.28-1.54-3.94-1.54s-2.98.51-3.96,1.54c-.98,1.03-1.46,2.5-1.46,4.43v12.01h-4.41v-12.01c0-1.92-.48-3.4-1.44-4.43-.96-1.03-2.28-1.54-3.94-1.54s-2.98.51-3.96,1.54c-.98,1.03-1.46,2.5-1.46,4.43v12.01h-4.45v-21.49h4.45v2.46c.73-.88,1.65-1.57,2.77-2.07,1.12-.49,2.31-.74,3.59-.74,1.72,0,3.25.36,4.6,1.09,1.35.73,2.39,1.78,3.12,3.16.65-1.3,1.66-2.33,3.04-3.1,1.38-.77,2.86-1.15,4.45-1.15,1.69,0,3.2.35,4.54,1.05Z"/>
    <path class="cls-2" d="m500.28,51.43h-16.42c.13,1.72.77,3.09,1.91,4.13,1.14,1.04,2.55,1.56,4.21,1.56,2.39,0,4.08-1,5.07-3h4.8c-.65,1.98-1.83,3.59-3.53,4.86-1.7,1.26-3.82,1.89-6.34,1.89-2.05,0-3.89-.46-5.52-1.38-1.62-.92-2.9-2.22-3.82-3.9-.92-1.68-1.38-3.62-1.38-5.83s.45-4.15,1.35-5.83,2.16-2.97,3.78-3.88,3.49-1.37,5.6-1.37,3.83.44,5.42,1.33,2.82,2.12,3.71,3.72c.88,1.6,1.33,3.44,1.33,5.52,0,.81-.05,1.54-.16,2.18Zm-4.48-3.59c-.03-1.64-.61-2.95-1.75-3.94-1.14-.99-2.56-1.48-4.25-1.48-1.53,0-2.85.49-3.94,1.46-1.09.98-1.74,2.29-1.95,3.96h11.9Z"/>
    <path class="cls-2" d="m520.19,39.73c1.34.7,2.39,1.74,3.14,3.12.75,1.38,1.13,3.04,1.13,4.99v12.67h-4.41v-12.01c0-1.92-.48-3.4-1.44-4.43-.96-1.03-2.28-1.54-3.94-1.54s-2.98.51-3.96,1.54c-.98,1.03-1.46,2.5-1.46,4.43v12.01h-4.45v-21.49h4.45v2.46c.73-.88,1.66-1.57,2.79-2.07,1.13-.49,2.33-.74,3.61-.74,1.69,0,3.2.35,4.54,1.05Z"/>
    <path class="cls-2" d="m535.3,42.66v11.9c0,.81.19,1.38.57,1.74.38.35,1.02.53,1.93.53h2.73v3.71h-3.51c-2,0-3.54-.47-4.6-1.4-1.07-.94-1.6-2.46-1.6-4.56v-11.9h-2.54v-3.63h2.54v-5.34h4.48v5.34h5.23v3.63h-5.23Z"/>
    <path class="cls-2" d="m554.62,43.95c.9-1.66,2.12-2.96,3.67-3.88,1.55-.92,3.27-1.38,5.17-1.38,1.4,0,2.79.31,4.15.92,1.37.61,2.45,1.42,3.26,2.44v-10.37h4.48v28.86h-4.48v-3.24c-.73,1.04-1.74,1.9-3.02,2.57-1.29.68-2.76,1.01-4.43,1.01-1.87,0-3.58-.47-5.13-1.42-1.55-.95-2.77-2.28-3.67-3.98-.9-1.7-1.35-3.63-1.35-5.79s.45-4.07,1.35-5.73Zm15.33,1.95c-.61-1.09-1.41-1.92-2.4-2.5-.99-.57-2.05-.86-3.2-.86s-2.21.28-3.2.84c-.99.56-1.79,1.38-2.4,2.46-.61,1.08-.92,2.36-.92,3.84s.31,2.78.92,3.9c.61,1.12,1.42,1.97,2.42,2.55s2.06.88,3.18.88,2.21-.29,3.2-.86c.99-.57,1.79-1.41,2.4-2.52.61-1.1.92-2.4.92-3.88s-.31-2.77-.92-3.86Z"/>
    <path class="cls-2" d="m581.44,35.37c-.55-.55-.82-1.22-.82-2.03s.27-1.48.82-2.03c.55-.55,1.22-.82,2.03-.82s1.44.27,1.99.82c.55.55.82,1.22.82,2.03s-.27,1.48-.82,2.03c-.55.55-1.21.82-1.99.82s-1.48-.27-2.03-.82Zm4.21,3.67v21.49h-4.45v-21.49h4.45Z"/>
    <path class="cls-2" d="m594.75,59.96c-1.34-.61-2.4-1.44-3.18-2.5-.78-1.05-1.2-2.23-1.25-3.53h4.6c.08.91.51,1.67,1.31,2.28.79.61,1.79.92,2.98.92s2.22-.24,2.91-.72c.69-.48,1.03-1.1,1.03-1.85,0-.81-.38-1.4-1.15-1.79-.77-.39-1.98-.82-3.65-1.29-1.61-.44-2.93-.87-3.94-1.29-1.01-.42-1.89-1.05-2.63-1.91-.74-.86-1.11-1.99-1.11-3.39,0-1.14.34-2.19,1.01-3.14.68-.95,1.64-1.7,2.91-2.24,1.26-.55,2.71-.82,4.35-.82,2.44,0,4.41.62,5.91,1.85,1.49,1.24,2.29,2.92,2.4,5.05h-4.45c-.08-.96-.47-1.73-1.17-2.3-.7-.57-1.65-.86-2.85-.86s-2.07.22-2.69.66-.94,1.03-.94,1.75c0,.57.21,1.05.62,1.44.42.39.92.7,1.52.92s1.48.5,2.65.84c1.56.42,2.84.84,3.84,1.27,1,.43,1.87,1.06,2.59,1.89.73.83,1.1,1.94,1.13,3.32,0,1.22-.34,2.31-1.01,3.28-.68.96-1.63,1.72-2.87,2.26-1.24.55-2.69.82-4.35.82s-3.2-.31-4.54-.92Z"/>
    <path class="cls-2" d="m619.85,39.69c1.3-.68,2.77-1.01,4.41-1.01,1.87,0,3.58.46,5.13,1.38s2.76,2.22,3.65,3.88c.88,1.66,1.33,3.58,1.33,5.73s-.44,4.09-1.33,5.79c-.88,1.7-2.1,3.03-3.65,3.98s-3.26,1.42-5.13,1.42c-1.64,0-3.09-.33-4.37-.99-1.27-.66-2.31-1.49-3.12-2.48v13.34h-4.45v-31.71h4.45v3.16c.75-.99,1.78-1.82,3.08-2.5Zm9.07,6.14c-.61-1.08-1.42-1.9-2.42-2.46-1-.56-2.07-.84-3.22-.84s-2.18.29-3.18.86c-1,.57-1.81,1.4-2.42,2.5-.61,1.09-.92,2.38-.92,3.86s.31,2.78.92,3.88c.61,1.11,1.42,1.94,2.42,2.52,1,.57,2.06.86,3.18.86s2.22-.29,3.22-.88c1-.58,1.81-1.44,2.42-2.55.61-1.12.92-2.42.92-3.9s-.31-2.76-.92-3.84Z"/>
    <path class="cls-2" d="m642.59,59.49c-1.64-.92-2.93-2.22-3.86-3.9-.94-1.68-1.4-3.62-1.4-5.83s.48-4.12,1.44-5.81c.96-1.69,2.27-2.99,3.94-3.9s3.52-1.37,5.58-1.37,3.91.46,5.58,1.37c1.66.91,2.98,2.21,3.94,3.9.96,1.69,1.44,3.63,1.44,5.81s-.49,4.12-1.48,5.81c-.99,1.69-2.33,3-4.04,3.92-1.7.92-3.58,1.38-5.64,1.38s-3.86-.46-5.5-1.38Zm8.72-3.3c1-.55,1.81-1.37,2.44-2.46s.94-2.42.94-3.98-.3-2.88-.9-3.96c-.6-1.08-1.39-1.89-2.38-2.44-.99-.55-2.05-.82-3.2-.82s-2.2.27-3.18.82-1.75,1.36-2.32,2.44c-.57,1.08-.86,2.4-.86,3.96,0,2.31.59,4.1,1.77,5.36,1.18,1.26,2.67,1.89,4.47,1.89,1.14,0,2.22-.27,3.22-.82Z"/>
    <path class="cls-2" d="m679.03,39.73c1.34.7,2.39,1.74,3.14,3.12.75,1.38,1.13,3.04,1.13,4.99v12.67h-4.41v-12.01c0-1.92-.48-3.4-1.44-4.43-.96-1.03-2.28-1.54-3.94-1.54s-2.98.51-3.96,1.54c-.98,1.03-1.46,2.5-1.46,4.43v12.01h-4.45v-21.49h4.45v2.46c.73-.88,1.66-1.57,2.79-2.07,1.13-.49,2.33-.74,3.61-.74,1.69,0,3.2.35,4.54,1.05Z"/>
    <path class="cls-2" d="m689.19,35.37c-.55-.55-.82-1.22-.82-2.03s.27-1.48.82-2.03c.55-.55,1.22-.82,2.03-.82s1.44.27,1.99.82c.55.55.82,1.22.82,2.03s-.27,1.48-.82,2.03c-.55.55-1.21.82-1.99.82s-1.48-.27-2.03-.82Zm4.21,3.67v21.49h-4.45v-21.49h4.45Z"/>
    <path class="cls-2" d="m706.8,39.67c1.31-.66,2.77-.99,4.39-.99,1.9,0,3.61.46,5.15,1.37s2.74,2.2,3.63,3.88,1.33,3.59,1.33,5.75-.44,4.09-1.33,5.79c-.88,1.7-2.1,3.03-3.65,3.98s-3.26,1.42-5.13,1.42c-1.66,0-3.14-.33-4.43-.97s-2.31-1.48-3.06-2.5v3.12h-4.45v-28.86h4.45v10.57c.75-1.04,1.79-1.89,3.1-2.55Zm9.05,6.16c-.61-1.08-1.42-1.9-2.42-2.46-1-.56-2.07-.84-3.22-.84s-2.18.29-3.18.86c-1,.57-1.81,1.4-2.42,2.5-.61,1.09-.92,2.38-.92,3.86s.31,2.78.92,3.88c.61,1.11,1.42,1.94,2.42,2.52,1,.57,2.06.86,3.18.86s2.22-.29,3.22-.88c1-.58,1.81-1.44,2.42-2.55.61-1.12.92-2.42.92-3.9s-.31-2.76-.92-3.84Z"/>
    <path class="cls-2" d="m730.14,31.66v28.86h-4.45v-28.86h4.45Z"/>
    <path class="cls-2" d="m755.53,51.43h-16.42c.13,1.72.77,3.09,1.91,4.13,1.14,1.04,2.55,1.56,4.21,1.56,2.39,0,4.08-1,5.07-3h4.8c-.65,1.98-1.83,3.59-3.53,4.86-1.7,1.26-3.82,1.89-6.34,1.89-2.05,0-3.89-.46-5.52-1.38-1.62-.92-2.9-2.22-3.82-3.9-.92-1.68-1.38-3.62-1.38-5.83s.45-4.15,1.35-5.83,2.16-2.97,3.78-3.88,3.49-1.37,5.6-1.37,3.83.44,5.42,1.33,2.82,2.12,3.71,3.72c.88,1.6,1.33,3.44,1.33,5.52,0,.81-.05,1.54-.16,2.18Zm-4.48-3.59c-.03-1.64-.61-2.95-1.75-3.94-1.14-.99-2.56-1.48-4.25-1.48-1.53,0-2.85.49-3.94,1.46-1.09.98-1.74,2.29-1.95,3.96h11.9Z"/>
    <path class="cls-2" d="m763.31,59.96c-1.34-.61-2.4-1.44-3.18-2.5-.78-1.05-1.2-2.23-1.25-3.53h4.6c.08.91.51,1.67,1.31,2.28.79.61,1.79.92,2.98.92s2.22-.24,2.91-.72c.69-.48,1.03-1.1,1.03-1.85,0-.81-.38-1.4-1.15-1.79-.77-.39-1.98-.82-3.65-1.29-1.61-.44-2.93-.87-3.94-1.29-1.01-.42-1.89-1.05-2.63-1.91-.74-.86-1.11-1.99-1.11-3.39,0-1.14.34-2.19,1.01-3.14.68-.95,1.64-1.7,2.91-2.24,1.26-.55,2.71-.82,4.35-.82,2.44,0,4.41.62,5.91,1.85,1.49,1.24,2.29,2.92,2.4,5.05h-4.45c-.08-.96-.47-1.73-1.17-2.3-.7-.57-1.65-.86-2.85-.86s-2.07.22-2.69.66-.94,1.03-.94,1.75c0,.57.21,1.05.62,1.44.42.39.92.7,1.52.92s1.48.5,2.65.84c1.56.42,2.84.84,3.84,1.27,1,.43,1.87,1.06,2.59,1.89.73.83,1.1,1.94,1.13,3.32,0,1.22-.34,2.31-1.01,3.28-.68.96-1.63,1.72-2.87,2.26-1.24.55-2.69.82-4.35.82s-3.2-.31-4.54-.92Z"/>
    <path class="cls-2" d="m90.59,83.42l-8.97,17.28v9.83h-4.45v-9.83l-9.01-17.28h4.95l6.28,13.3,6.28-13.3h4.91Z"/>
    <path class="cls-2" d="m97.92,109.49c-1.64-.92-2.93-2.22-3.86-3.9-.94-1.68-1.4-3.62-1.4-5.83s.48-4.12,1.44-5.81c.96-1.69,2.27-2.99,3.94-3.9s3.52-1.37,5.58-1.37,3.91.46,5.58,1.37c1.66.91,2.98,2.21,3.94,3.9.96,1.69,1.44,3.63,1.44,5.81s-.49,4.12-1.48,5.81c-.99,1.69-2.33,3-4.04,3.92-1.7.92-3.58,1.38-5.64,1.38s-3.86-.46-5.5-1.38Zm8.72-3.3c1-.55,1.81-1.37,2.44-2.46s.94-2.42.94-3.98-.3-2.88-.9-3.96c-.6-1.08-1.39-1.89-2.38-2.44-.99-.55-2.05-.82-3.2-.82s-2.2.27-3.18.82-1.75,1.36-2.32,2.44c-.57,1.08-.86,2.4-.86,3.96,0,2.31.59,4.1,1.77,5.36,1.18,1.26,2.67,1.89,4.47,1.89,1.14,0,2.22-.27,3.22-.82Z"/>
    <path class="cls-2" d="m138.44,89.03v21.49h-4.45v-2.54c-.7.88-1.62,1.58-2.75,2.09s-2.33.76-3.61.76c-1.69,0-3.2-.35-4.54-1.05-1.34-.7-2.39-1.74-3.16-3.12-.77-1.38-1.15-3.04-1.15-4.99v-12.64h4.41v11.97c0,1.92.48,3.4,1.44,4.43.96,1.03,2.27,1.54,3.94,1.54s2.98-.51,3.96-1.54c.98-1.03,1.46-2.5,1.46-4.43v-11.97h4.45Z"/>
    <path class="cls-2" d="m161.8,83.42v3.63h-7.21v23.48h-4.45v-23.48h-7.25v-3.63h18.92Z"/>
    <path class="cls-2" d="m185.75,89.03v21.49h-4.45v-2.54c-.7.88-1.62,1.58-2.75,2.09s-2.33.76-3.61.76c-1.69,0-3.2-.35-4.54-1.05-1.34-.7-2.39-1.74-3.16-3.12-.77-1.38-1.15-3.04-1.15-4.99v-12.64h4.41v11.97c0,1.92.48,3.4,1.44,4.43.96,1.03,2.27,1.54,3.94,1.54s2.98-.51,3.96-1.54c.98-1.03,1.46-2.5,1.46-4.43v-11.97h4.45Z"/>
    <path class="cls-2" d="m199.15,89.67c1.31-.66,2.77-.99,4.39-.99,1.9,0,3.61.46,5.15,1.37s2.74,2.2,3.63,3.88,1.33,3.59,1.33,5.75-.44,4.09-1.33,5.79c-.88,1.7-2.1,3.03-3.65,3.98s-3.26,1.42-5.13,1.42c-1.66,0-3.14-.33-4.43-.97s-2.31-1.48-3.06-2.5v3.12h-4.45v-28.86h4.45v10.57c.75-1.04,1.79-1.89,3.1-2.55Zm9.05,6.16c-.61-1.08-1.42-1.9-2.42-2.46-1-.56-2.07-.84-3.22-.84s-2.18.29-3.18.86c-1,.57-1.81,1.4-2.42,2.5-.61,1.09-.92,2.38-.92,3.86s.31,2.78.92,3.88c.61,1.11,1.42,1.94,2.42,2.52,1,.57,2.06.86,3.18.86s2.22-.29,3.22-.88c1-.58,1.81-1.44,2.42-2.55.61-1.12.92-2.42.92-3.9s-.31-2.76-.92-3.84Z"/>
    <path class="cls-2" d="m237.58,101.43h-16.42c.13,1.72.77,3.09,1.91,4.13,1.14,1.04,2.55,1.56,4.21,1.56,2.39,0,4.08-1,5.07-3h4.8c-.65,1.98-1.83,3.59-3.53,4.86-1.7,1.26-3.82,1.89-6.34,1.89-2.05,0-3.89-.46-5.52-1.38-1.62-.92-2.9-2.22-3.82-3.9-.92-1.68-1.38-3.62-1.38-5.83s.45-4.15,1.35-5.83,2.16-2.97,3.78-3.88,3.49-1.37,5.6-1.37,3.83.44,5.42,1.33,2.82,2.12,3.71,3.72c.88,1.6,1.33,3.44,1.33,5.52,0,.81-.05,1.54-.16,2.18Zm-4.48-3.59c-.03-1.64-.61-2.95-1.75-3.94-1.14-.99-2.56-1.48-4.25-1.48-1.53,0-2.85.49-3.94,1.46-1.09.98-1.74,2.29-1.95,3.96h11.9Z"/>
    <path class="cls-2" d="m279.58,86.2c2.29,1.16,4.05,2.78,5.28,4.88,1.23,2.09,1.85,4.5,1.85,7.23,0,2.21-.38,4.26-1.15,6.16-.77,1.9-1.9,3.41-3.39,4.54-1.5,1.13-3.27,1.7-5.32,1.7-1.38,0-2.52-.27-3.41-.82s-1.5-1.31-1.81-2.3c-.73,1.01-1.66,1.8-2.81,2.36-1.14.56-2.39.84-3.74.84-1.92,0-3.44-.58-4.54-1.74-1.11-1.16-1.66-2.74-1.66-4.74,0-1.9.39-3.69,1.17-5.36.78-1.68,1.86-3.02,3.24-4.04,1.38-1.01,2.92-1.52,4.64-1.52,2.18,0,3.67.78,4.45,2.34l.35-2.07h5.38l-1.72,9.79c-.08.47-.12.88-.12,1.25,0,1.14.51,1.72,1.52,1.72,1.25,0,2.2-.8,2.87-2.4.66-1.6.99-3.44.99-5.52,0-2.99-.94-5.33-2.83-7.02-1.89-1.69-4.53-2.54-7.94-2.54-2.91,0-5.56.7-7.94,2.11s-4.24,3.32-5.6,5.75c-1.35,2.43-2.03,5.1-2.03,8.01,0,3.15.92,5.59,2.75,7.33,1.83,1.74,4.4,2.61,7.7,2.61,2.57,0,4.88-.47,6.9-1.4l1.05,4.25c-2.55,1.12-5.41,1.68-8.58,1.68-2.96,0-5.57-.57-7.82-1.72-2.25-1.14-3.98-2.77-5.21-4.88-1.22-2.11-1.83-4.56-1.83-7.37,0-3.93.92-7.48,2.77-10.67,1.85-3.18,4.39-5.68,7.62-7.49,3.24-1.81,6.86-2.71,10.86-2.71,3.07,0,5.75.58,8.03,1.74Zm-10.28,19.13c.64-.44,1.14-1.03,1.52-1.78.38-.74.57-1.54.57-2.4s-.25-1.6-.74-2.16c-.49-.56-1.17-.84-2.03-.84-1.14,0-2.09.49-2.85,1.48-.75.99-1.13,2.16-1.13,3.51,0,.86.22,1.55.66,2.07.44.52,1.09.78,1.95.78.73,0,1.41-.22,2.05-.66Z"/>
    <path class="cls-2" d="m298.65,105.37h8.74v5.15h-15.41v-27.38h6.67v22.23Z"/>
    <path class="cls-2" d="m327.63,105.68h-10.22l-1.64,4.84h-6.98l9.91-27.38h7.72l9.91,27.38h-7.06l-1.64-4.84Zm-1.72-5.15l-3.39-10.02-3.35,10.02h6.75Z"/>
    <path class="cls-2" d="m370.33,83.14v27.38h-6.67v-16.42l-6.12,16.42h-5.38l-6.16-16.46v16.46h-6.67v-27.38h7.88l7.68,18.95,7.6-18.95h7.84Z"/>
    <path class="cls-2" d="m381.8,88.49v5.54h8.93v5.15h-8.93v6.01h10.1v5.34h-16.77v-27.38h16.77v5.34h-10.1Z"/>
    <path class="cls-2" d="m402.9,105.37h8.74v5.15h-15.41v-27.38h6.67v22.23Z"/>
    <path class="cls-2" d="m421.5,88.49v5.54h8.93v5.15h-8.93v6.01h10.1v5.34h-16.77v-27.38h16.77v5.34h-10.1Z"/>
    <path class="cls-2" d="m442.6,88.49v5.54h8.93v5.15h-8.93v6.01h10.1v5.34h-16.77v-27.38h16.77v5.34h-10.1Z"/>
  </g>
</svg>